<svg width="1127" height="611" viewBox="0 0 1127 611" fill="none" xmlns="http://www.w3.org/2000/svg">
<path d="M167.349 498.24C313.158 583.279 545.779 613.535 750.802 574.487H750.803L753.854 573.9C881.849 549.062 984.827 501.103 1047.34 436.214L1048.83 434.666L1048.83 434.664L1050.1 433.311C1076.73 404.78 1097.44 368.217 1103.04 338.755H1103.04C1104.28 332.41 1104.83 318.461 1104.83 305.086C1104.83 291.697 1104.28 277.749 1103.04 271.467L1103.04 271.468C1097.9 245.468 1082.5 215.549 1060.94 189.073L1060.94 189.066L1060.93 189.059C990.383 103.047 840.807 40.4372 668.357 23.5669L668.358 23.5659C617.396 18.5295 565.252 16.7587 528.908 18.8804V18.8813C435.707 24.1841 374.819 33.8146 305.856 54.1802L302.566 55.1587C172.443 94.0772 77.663 159.485 42.7754 236.756L42.7705 236.769C28.419 268.79 25.0359 309.85 33.8008 346.792H33.7998C46.5441 400.789 95.456 455.931 165.687 497.265L167.349 498.24ZM879.796 485.457C766.478 533.071 625.505 550.415 492.572 540.043C359.561 529.665 235.346 491.601 155.206 429.147C107.303 391.797 82.8664 348.978 82.8662 305.364C82.8662 274.788 92.2177 249.115 113.785 222L114.821 220.708L114.826 220.702L115.385 220.018C121.327 212.828 132.528 201.974 144.86 191.175C157.554 180.06 171.084 169.319 180.731 163.026H180.73C256.566 113.566 363.927 81.0433 487.356 70.5464L490.275 70.3022L490.286 70.3013L490.298 70.3003C501.007 69.3728 511.208 68.4634 514.949 68.1763L516.14 68.0933L516.259 68.0864L516.379 68.0747C520.578 67.6422 536.405 67.4582 554.83 67.5317C573.086 67.6046 593.41 67.9252 606.321 68.4468L613.309 68.7515C644.915 70.1716 662.864 71.5872 683.972 74.2417L688.55 74.8306C728.205 80.0567 769.029 88.3 803.3 98.0327L805.998 98.8052C919.968 131.634 1000.48 183.094 1034.85 243.376C1041.3 254.802 1045.05 262.876 1047.26 271.438C1049.47 280.018 1050.2 289.384 1050.2 303.496C1050.2 328.321 1048.11 339.682 1041.71 353.86V353.861C1031.55 376.148 1019.26 391.84 993.326 415.126V415.127C957.384 447.291 930.002 464.401 879.799 485.456L879.796 485.457Z" fill="black" stroke="black" stroke-width="10"/>
<path d="M143.664 510.77C296.492 602.199 541.101 634.998 756.949 592.829C894.269 565.983 1003.81 513.43 1069.23 442.768C1097.57 412.123 1119.42 372.614 1125.2 341.462C1127.6 328.925 1127.6 282.957 1125.2 270.547C1119.99 243.448 1104.2 211.79 1081.78 183.551L1080.05 181.406C1006.02 90.8145 850.554 24.1036 670.244 6.01083C616.529 0.565609 561.685 -1.33361 523.619 0.945765C423.801 6.77089 359.371 17.408 285.495 40.0754C149.527 81.7892 51.5889 151.302 14.9517 232.165L14.0975 234.077C-0.564979 267.635 -4.08886 310.944 4.9342 349.947C17.9435 406.486 68.2871 465.27 141.919 509.723L143.664 510.77ZM755.194 585.587C541.058 627.421 298.837 594.698 148.238 504.602L148.235 504.6C74.7663 460.69 25.5426 402.892 13.0152 348.446L13.0141 348.438C4.28616 310.711 7.75727 268.88 21.7802 236.785H21.779C56.2162 158.568 150.802 89.8546 284.985 48.0721L288.162 47.0897L291.579 46.0484C362.055 24.6984 424.418 14.3759 519.526 8.61781L524.154 8.34274L524.168 8.34171L527.724 8.14316C564.98 6.22042 617.576 8.13155 669.318 13.3768L669.327 13.3778L673.552 13.8111C852.186 32.5345 1004.18 99.2343 1075.06 187.854C1096.94 215.415 1112.11 246.053 1117.07 271.811L1117.07 271.815L1117.17 272.353C1118.17 278.16 1118.75 291.701 1118.75 305.957C1118.75 320.668 1118.13 334.664 1117.07 340.208L1117.07 340.225L1117.06 340.244C1111.58 369.801 1090.53 408.133 1062.88 438.032V438.033C999.016 507.018 891.384 558.961 755.194 585.586V585.587ZM38.1311 306.258C38.1311 358.388 66.6713 408.141 119.424 450.331L119.426 450.332L121.488 451.969C209.146 521.025 342.566 562.288 483.746 573.587C626.141 584.984 777.617 566.004 899.954 513.275H899.953C953.494 490.242 983.66 471.119 1021.98 436.204L1023.81 434.53L1023.82 434.52L1026.43 432.1C1052.15 408.101 1065.84 390.412 1076.92 366.273L1078.03 363.837L1078.03 363.827L1078.03 363.815C1085.75 346.283 1088.06 332.082 1088.06 304.232C1088.06 288.614 1087.28 277.261 1084.58 266.48C1081.86 255.661 1077.3 245.803 1070.28 233.069L1070.28 233.058L1070.27 233.046C1031.22 162.769 940.969 105.121 817.441 69.1152L817.44 69.1142C780.448 58.338 736.578 49.2605 694.029 43.5086H694.023C667.29 39.9133 646.692 38.2502 605.789 36.4705L605.78 36.4694H605.771C591.856 35.8926 570.154 35.5436 550.778 35.4643C531.9 35.387 514.329 35.5572 508.72 36.1168C505.69 36.3162 493.445 37.4384 481.258 38.5211V38.5201C347.812 49.7531 230.634 85.6606 147.334 141.389H147.333C136.36 148.731 121.514 160.861 107.904 173.085C94.3438 185.265 81.4539 198.038 74.6115 206.748L73.4417 208.244C49.0931 239.65 38.1311 270.117 38.1311 306.258ZM46.3917 304.618C46.722 270.262 57.4773 241.321 81.3478 211.03C94.1774 194.694 131.257 161.389 152.264 147.333C234.035 92.6278 349.643 57.0442 482.028 45.9005C494.857 44.7608 507.264 43.6208 509.52 43.4941C518.807 42.5127 574.271 42.7202 602.723 43.7702L605.391 43.8737C643.589 45.5357 663.819 47.0873 687.922 50.1962L692.802 50.8394C733.639 56.3598 775.666 64.9696 811.451 75.173L814.894 76.1658C936.453 111.597 1023.87 167.723 1062 234.771L1062.89 236.356C1076.27 260.646 1079.6 272.577 1079.8 301.39L1079.81 304.232C1079.81 331.585 1077.55 344.755 1070.36 361.09C1059.22 386.164 1045.69 403.766 1017.91 429.346C980.026 464.124 950.881 482.951 898.878 505.514L896.384 506.592C654.877 610.684 296.632 582.065 124.912 444.795C73.4526 403.64 46.3837 355.771 46.3837 306.258L46.3917 304.618Z" fill="black"/>
<path d="M230.379 371V240.072H282.802C292.434 240.072 300.468 241.5 306.903 244.355C313.339 247.211 318.176 251.175 321.415 256.246C324.654 261.275 326.274 267.072 326.274 273.635C326.274 278.75 325.251 283.246 323.205 287.124C321.16 290.96 318.347 294.114 314.767 296.586C311.229 299.015 307.18 300.741 302.62 301.764V303.043C307.606 303.256 312.273 304.662 316.621 307.262C321.01 309.862 324.569 313.506 327.297 318.194C330.024 322.84 331.388 328.38 331.388 334.816C331.388 341.763 329.662 347.964 326.21 353.419C322.8 358.832 317.75 363.115 311.059 366.269C304.367 369.423 296.12 371 286.318 371H230.379ZM258.061 348.369H280.628C288.342 348.369 293.968 346.899 297.506 343.958C301.043 340.974 302.812 337.011 302.812 332.067C302.812 328.444 301.938 325.248 300.191 322.477C298.443 319.707 295.95 317.534 292.711 315.957C289.514 314.38 285.7 313.591 281.267 313.591H258.061V348.369ZM258.061 294.86H278.582C282.376 294.86 285.743 294.199 288.683 292.878C291.667 291.514 294.011 289.596 295.716 287.124C297.463 284.652 298.337 281.69 298.337 278.238C298.337 273.507 296.653 269.693 293.286 266.795C289.962 263.897 285.231 262.448 279.094 262.448H258.061V294.86ZM430.271 240.072H457.953V325.099C457.953 334.645 455.673 342.999 451.112 350.159C446.595 357.319 440.266 362.902 432.125 366.909C423.985 370.872 414.502 372.854 403.677 372.854C392.809 372.854 383.304 370.872 375.164 366.909C367.024 362.902 360.695 357.319 356.177 350.159C351.659 342.999 349.4 334.645 349.4 325.099V240.072H377.082V322.733C377.082 327.72 378.169 332.152 380.342 336.03C382.559 339.909 385.67 342.956 389.676 345.172C393.682 347.389 398.349 348.497 403.677 348.497C409.047 348.497 413.714 347.389 417.677 345.172C421.684 342.956 424.773 339.909 426.947 336.03C429.163 332.152 430.271 327.72 430.271 322.733V240.072ZM480.728 371V240.072H567.416V262.895H508.409V294.093H561.663V316.916H508.409V371H480.728ZM586.036 371V240.072H672.724V262.895H613.717V294.093H666.971V316.916H613.717V371H586.036ZM691.344 371V240.072H779.567V262.895H719.026V294.093H775.028V316.916H719.026V348.177H779.823V371H691.344ZM801.575 371V240.072H853.23C863.118 240.072 871.556 241.841 878.546 245.378C885.578 248.873 890.927 253.838 894.592 260.274C898.3 266.667 900.154 274.189 900.154 282.841C900.154 291.535 898.279 299.015 894.528 305.28C890.778 311.503 885.344 316.276 878.226 319.601C871.151 322.925 862.585 324.587 852.527 324.587H817.941V302.34H848.051C853.336 302.34 857.726 301.615 861.221 300.166C864.716 298.717 867.316 296.543 869.02 293.645C870.768 290.747 871.641 287.146 871.641 282.841C871.641 278.494 870.768 274.829 869.02 271.845C867.316 268.862 864.694 266.603 861.157 265.069C857.662 263.492 853.251 262.703 847.924 262.703H829.256V371H801.575ZM872.281 311.418L904.821 371H874.263L842.426 311.418H872.281Z" fill="black"/>
</svg>
