<svg width="1752" height="502" viewBox="0 0 1752 502" fill="none" xmlns="http://www.w3.org/2000/svg">
<path d="M101.922 189.843H149.624V122.82H101.922C45.6316 122.82 0 168.452 0 224.742V291.765C0 235.476 45.6316 189.843 101.922 189.843Z" fill="url(#paint0_linear_806_55)"/>
<path d="M101.922 312.672C45.6316 312.672 0 358.303 0 414.594V502.001L149.624 386.713V312.672H101.922Z" fill="url(#paint1_linear_806_55)"/>
<path d="M282.398 312.618L318.71 312.153C330.932 312.153 348.684 325.206 348.684 345.664C348.684 366.122 330.932 379.175 318.71 379.175H342.007C414.671 379.175 486.017 308.814 458.352 247.661L458.359 247.653C448.329 235.21 436.432 224.338 423.093 215.457C400.26 271.299 346.066 310.994 282.398 312.618Z" fill="url(#paint2_linear_806_55)"/>
<path d="M0 414.592C0 358.301 45.6316 312.67 101.922 312.67H278.34C364.681 312.67 434.675 242.672 434.675 156.335C434.675 69.9917 364.681 0 278.34 0H101.922C45.6316 0 0 45.6317 0 101.922V224.745C0 168.455 45.6316 122.823 101.922 122.823H260.472C272.695 122.823 290.446 135.876 290.446 156.335C290.446 176.792 272.695 189.846 260.472 189.846H101.922C45.6316 189.846 0 235.477 0 291.768V312.67V414.592Z" fill="url(#paint3_linear_806_55)"/>
<path d="M0.000805522 501.998H336.581C422.921 501.998 492.916 432 492.916 345.662C492.916 308.545 479.977 274.457 458.363 247.648L458.355 247.659C486.02 308.812 414.675 379.174 342.01 379.174H101.922C45.6317 379.174 0 424.805 0 481.095V501.998H0.000805522Z" fill="url(#paint4_linear_806_55)"/>
<rect x="584.914" y="96" width="16" height="310" rx="8" fill="black"/>
<path d="M702.147 238.5V125.822H788.534C792.499 125.822 796.098 126.813 799.333 128.795C802.671 130.777 805.332 133.438 807.314 136.776C809.296 140.011 810.287 143.61 810.287 147.575V169.641C810.287 170.997 810.183 172.301 809.974 173.553C809.766 174.805 809.401 176.005 808.879 177.153C810.653 179.553 812.061 182.056 813.104 184.665C814.252 187.273 814.826 189.881 814.826 192.49V216.747C814.826 220.711 813.835 224.363 811.852 227.702C809.87 230.936 807.21 233.544 803.871 235.527C800.532 237.509 796.881 238.5 792.916 238.5H702.147ZM724.683 217.686H791.977C792.499 217.686 792.968 217.529 793.386 217.216C793.803 216.799 794.012 216.329 794.012 215.808V193.429C794.012 192.907 793.803 192.49 793.386 192.177C792.968 191.759 792.499 191.551 791.977 191.551H724.683C724.161 191.551 723.692 191.759 723.275 192.177C722.962 192.49 722.805 192.907 722.805 193.429V215.808C722.805 216.329 722.962 216.799 723.275 217.216C723.692 217.529 724.161 217.686 724.683 217.686ZM724.683 170.736H787.595C788.117 170.736 788.534 170.58 788.847 170.267C789.16 169.85 789.317 169.38 789.317 168.858V148.514C789.317 147.992 789.16 147.575 788.847 147.262C788.534 146.844 788.117 146.636 787.595 146.636H724.683C724.161 146.636 723.692 146.844 723.275 147.262C722.962 147.575 722.805 147.992 722.805 148.514V168.858C722.805 169.38 722.962 169.85 723.275 170.267C723.692 170.58 724.161 170.736 724.683 170.736ZM875.239 238.5C871.274 238.5 867.623 237.509 864.284 235.527C861.05 233.544 858.441 230.936 856.459 227.702C854.477 224.363 853.486 220.711 853.486 216.747V125.822H874.143V215.808C874.143 216.329 874.3 216.799 874.613 217.216C875.03 217.529 875.5 217.686 876.021 217.686H943.315C943.837 217.686 944.307 217.529 944.724 217.216C945.141 216.799 945.35 216.329 945.35 215.808V125.822H966.164V216.747C966.164 220.711 965.173 224.363 963.191 227.702C961.208 230.936 958.548 233.544 955.209 235.527C951.975 237.509 948.375 238.5 944.411 238.5H875.239ZM1005.62 238.5V125.822H1109.38V146.636H1026.44V171.675H1093.1V192.646H1026.44V238.5H1005.62ZM1140.62 238.5V125.822H1244.38V146.636H1161.44V171.675H1228.11V192.646H1161.44V238.5H1140.62ZM1275.63 238.5V125.822H1379.39V146.636H1296.44V171.675H1363.11V192.646H1296.44V217.686H1379.39V238.5H1275.63ZM1506.87 238.5L1472.91 197.967H1499.99L1529.41 232.71V238.5H1506.87ZM1417.04 238.5V125.978H1507.81C1511.78 125.978 1515.43 126.969 1518.77 128.952C1522.11 130.934 1524.77 133.594 1526.75 136.933C1528.73 140.167 1529.72 143.767 1529.72 147.731V178.092C1529.72 182.056 1528.73 185.708 1526.75 189.047C1524.77 192.385 1522.11 195.046 1518.77 197.028C1515.43 198.906 1511.78 199.845 1507.81 199.845L1437.7 200.002V238.5H1417.04ZM1439.58 179.031H1506.87C1507.4 179.031 1507.86 178.874 1508.28 178.561C1508.7 178.248 1508.91 177.831 1508.91 177.309V148.514C1508.91 147.992 1508.7 147.575 1508.28 147.262C1507.86 146.844 1507.4 146.636 1506.87 146.636H1439.58C1439.06 146.636 1438.59 146.844 1438.17 147.262C1437.86 147.575 1437.7 147.992 1437.7 148.514V177.309C1437.7 177.831 1437.86 178.248 1438.17 178.561C1438.59 178.874 1439.06 179.031 1439.58 179.031Z" fill="black"/>
<mask id="path-8-outside-1_806_55" maskUnits="userSpaceOnUse" x="696.914" y="310.5" width="807" height="108" fill="black">
<rect fill="white" x="696.914" y="310.5" width="807" height="108"/>
<path d="M755.287 312.116V316.564H728.826V390.5H724.379V316.564H697.917V312.116H755.287ZM820.25 365.15V365.262H772.442C772.553 377.158 782.226 386.72 794.122 386.72C804.462 386.72 813.134 379.493 815.247 369.709H819.805C817.582 381.939 806.908 391.167 794.122 391.167C779.78 391.167 767.994 379.493 767.994 365.15C767.994 350.697 779.78 339.023 794.122 339.023C807.019 339.023 817.804 348.473 819.805 360.814C820.028 362.26 820.25 363.705 820.25 365.15ZM772.886 360.814H815.358C813.357 350.919 804.573 343.47 794.122 343.47C783.671 343.47 774.888 350.919 772.886 360.814ZM874.75 391.167C860.296 391.167 848.622 379.493 848.622 365.15C848.622 350.697 860.296 339.023 874.75 339.023C881.643 339.023 888.203 341.691 893.206 346.694L889.982 349.807C885.868 345.693 880.531 343.47 874.75 343.47C862.742 343.47 853.069 353.143 853.069 365.15C853.069 377.047 862.742 386.72 874.75 386.72C880.531 386.72 885.868 384.496 889.982 380.382L893.206 383.607C888.203 388.499 881.643 391.167 874.75 391.167ZM964.301 359.258V390.5H959.854V359.258C959.854 350.585 952.738 343.47 943.955 343.47C935.282 343.47 928.167 350.585 928.167 359.258V390.5H923.719V312.116H928.167V346.583C931.947 342.024 937.617 339.023 943.955 339.023C955.184 339.023 964.301 348.139 964.301 359.258ZM1035.91 390.5H1031.47V359.258C1031.47 350.585 1024.35 343.47 1015.57 343.47C1006.9 343.47 999.779 350.585 999.779 359.258V390.5H995.332V359.258C995.332 348.139 1004.45 339.023 1015.57 339.023C1026.8 339.023 1035.91 348.139 1035.91 359.258V390.5ZM1092.52 391.167C1078.17 391.167 1066.39 379.493 1066.39 365.15C1066.39 350.697 1078.17 339.023 1092.52 339.023C1106.86 339.023 1118.64 350.697 1118.64 365.15C1118.64 379.493 1106.86 391.167 1092.52 391.167ZM1092.52 343.47C1080.62 343.47 1070.84 353.143 1070.84 365.15C1070.84 377.047 1080.62 386.72 1092.52 386.72C1104.41 386.72 1114.2 377.047 1114.2 365.15C1114.2 353.143 1104.41 343.47 1092.52 343.47ZM1149.2 390.5V312.116H1153.65V390.5H1149.2ZM1210.23 391.167C1195.88 391.167 1184.1 379.493 1184.1 365.15C1184.1 350.697 1195.88 339.023 1210.23 339.023C1224.57 339.023 1236.35 350.697 1236.35 365.15C1236.35 379.493 1224.57 391.167 1210.23 391.167ZM1210.23 343.47C1198.33 343.47 1188.55 353.143 1188.55 365.15C1188.55 377.047 1198.33 386.72 1210.23 386.72C1222.12 386.72 1231.91 377.047 1231.91 365.15C1231.91 353.143 1222.12 343.47 1210.23 343.47ZM1314.05 339.69H1318.5V390.5C1318.5 404.954 1306.71 416.628 1292.37 416.628C1278.03 416.628 1266.24 404.954 1266.24 390.5H1270.69C1270.69 402.508 1280.48 412.181 1292.37 412.181C1304.27 412.181 1314.05 402.508 1314.05 390.5V379.715C1309.27 386.609 1301.38 391.167 1292.37 391.167C1278.03 391.167 1266.24 379.493 1266.24 365.15C1266.24 350.697 1277.92 339.023 1292.37 339.023C1301.38 339.023 1309.27 343.581 1314.05 350.585V339.69ZM1292.37 386.72C1304.27 386.72 1314.05 377.047 1314.05 365.15C1314.05 353.143 1304.27 343.47 1292.37 343.47C1280.48 343.47 1270.69 353.143 1270.69 365.15C1270.69 377.047 1280.48 386.72 1292.37 386.72ZM1349.93 390.5V339.578H1354.38V390.5H1349.93ZM1349.49 332.129V326.681H1354.94V332.129H1349.49ZM1437.62 365.15V365.262H1389.81C1389.92 377.158 1399.6 386.72 1411.49 386.72C1421.83 386.72 1430.51 379.493 1432.62 369.709H1437.18C1434.95 381.939 1424.28 391.167 1411.49 391.167C1397.15 391.167 1385.37 379.493 1385.37 365.15C1385.37 350.697 1397.15 339.023 1411.49 339.023C1424.39 339.023 1435.18 348.473 1437.18 360.814C1437.4 362.26 1437.62 363.705 1437.62 365.15ZM1390.26 360.814H1432.73C1430.73 350.919 1421.94 343.47 1411.49 343.47C1401.04 343.47 1392.26 350.919 1390.26 360.814ZM1485.19 391.167C1473.74 391.167 1467.62 382.05 1467.62 375.49H1472.07C1472.07 379.493 1475.85 386.72 1485.19 386.72C1495.19 386.72 1498.42 380.16 1498.42 376.936C1498.42 373.156 1493.64 369.931 1484.63 367.485C1480.41 366.262 1467.51 362.816 1467.51 353.699C1467.51 347.584 1473.07 339.023 1485.19 339.023C1497.31 339.023 1502.87 349.474 1502.87 355.033H1498.42C1498.42 351.03 1494.53 343.47 1485.19 343.47C1475.29 343.47 1471.96 350.474 1471.96 353.699C1471.96 357.479 1476.74 360.703 1485.74 363.149C1489.97 364.261 1502.87 367.819 1502.87 376.936C1502.87 382.828 1497.31 391.167 1485.19 391.167Z"/>
</mask>
<path d="M755.287 312.116V316.564H728.826V390.5H724.379V316.564H697.917V312.116H755.287ZM820.25 365.15V365.262H772.442C772.553 377.158 782.226 386.72 794.122 386.72C804.462 386.72 813.134 379.493 815.247 369.709H819.805C817.582 381.939 806.908 391.167 794.122 391.167C779.78 391.167 767.994 379.493 767.994 365.15C767.994 350.697 779.78 339.023 794.122 339.023C807.019 339.023 817.804 348.473 819.805 360.814C820.028 362.26 820.25 363.705 820.25 365.15ZM772.886 360.814H815.358C813.357 350.919 804.573 343.47 794.122 343.47C783.671 343.47 774.888 350.919 772.886 360.814ZM874.75 391.167C860.296 391.167 848.622 379.493 848.622 365.15C848.622 350.697 860.296 339.023 874.75 339.023C881.643 339.023 888.203 341.691 893.206 346.694L889.982 349.807C885.868 345.693 880.531 343.47 874.75 343.47C862.742 343.47 853.069 353.143 853.069 365.15C853.069 377.047 862.742 386.72 874.75 386.72C880.531 386.72 885.868 384.496 889.982 380.382L893.206 383.607C888.203 388.499 881.643 391.167 874.75 391.167ZM964.301 359.258V390.5H959.854V359.258C959.854 350.585 952.738 343.47 943.955 343.47C935.282 343.47 928.167 350.585 928.167 359.258V390.5H923.719V312.116H928.167V346.583C931.947 342.024 937.617 339.023 943.955 339.023C955.184 339.023 964.301 348.139 964.301 359.258ZM1035.91 390.5H1031.47V359.258C1031.47 350.585 1024.35 343.47 1015.57 343.47C1006.9 343.47 999.779 350.585 999.779 359.258V390.5H995.332V359.258C995.332 348.139 1004.45 339.023 1015.57 339.023C1026.8 339.023 1035.91 348.139 1035.91 359.258V390.5ZM1092.52 391.167C1078.17 391.167 1066.39 379.493 1066.39 365.15C1066.39 350.697 1078.17 339.023 1092.52 339.023C1106.86 339.023 1118.64 350.697 1118.64 365.15C1118.64 379.493 1106.86 391.167 1092.52 391.167ZM1092.52 343.47C1080.62 343.47 1070.84 353.143 1070.84 365.15C1070.84 377.047 1080.62 386.72 1092.52 386.72C1104.41 386.72 1114.2 377.047 1114.2 365.15C1114.2 353.143 1104.41 343.47 1092.52 343.47ZM1149.2 390.5V312.116H1153.65V390.5H1149.2ZM1210.23 391.167C1195.88 391.167 1184.1 379.493 1184.1 365.15C1184.1 350.697 1195.88 339.023 1210.23 339.023C1224.57 339.023 1236.35 350.697 1236.35 365.15C1236.35 379.493 1224.57 391.167 1210.23 391.167ZM1210.23 343.47C1198.33 343.47 1188.55 353.143 1188.55 365.15C1188.55 377.047 1198.33 386.72 1210.23 386.72C1222.12 386.72 1231.91 377.047 1231.91 365.15C1231.91 353.143 1222.12 343.47 1210.23 343.47ZM1314.05 339.69H1318.5V390.5C1318.5 404.954 1306.71 416.628 1292.37 416.628C1278.03 416.628 1266.24 404.954 1266.24 390.5H1270.69C1270.69 402.508 1280.48 412.181 1292.37 412.181C1304.27 412.181 1314.05 402.508 1314.05 390.5V379.715C1309.27 386.609 1301.38 391.167 1292.37 391.167C1278.03 391.167 1266.24 379.493 1266.24 365.15C1266.24 350.697 1277.92 339.023 1292.37 339.023C1301.38 339.023 1309.27 343.581 1314.05 350.585V339.69ZM1292.37 386.72C1304.27 386.72 1314.05 377.047 1314.05 365.15C1314.05 353.143 1304.27 343.47 1292.37 343.47C1280.48 343.47 1270.69 353.143 1270.69 365.15C1270.69 377.047 1280.48 386.72 1292.37 386.72ZM1349.93 390.5V339.578H1354.38V390.5H1349.93ZM1349.49 332.129V326.681H1354.94V332.129H1349.49ZM1437.62 365.15V365.262H1389.81C1389.92 377.158 1399.6 386.72 1411.49 386.72C1421.83 386.72 1430.51 379.493 1432.62 369.709H1437.18C1434.95 381.939 1424.28 391.167 1411.49 391.167C1397.15 391.167 1385.37 379.493 1385.37 365.15C1385.37 350.697 1397.15 339.023 1411.49 339.023C1424.39 339.023 1435.18 348.473 1437.18 360.814C1437.4 362.26 1437.62 363.705 1437.62 365.15ZM1390.26 360.814H1432.73C1430.73 350.919 1421.94 343.47 1411.49 343.47C1401.04 343.47 1392.26 350.919 1390.26 360.814ZM1485.19 391.167C1473.74 391.167 1467.62 382.05 1467.62 375.49H1472.07C1472.07 379.493 1475.85 386.72 1485.19 386.72C1495.19 386.72 1498.42 380.16 1498.42 376.936C1498.42 373.156 1493.64 369.931 1484.63 367.485C1480.41 366.262 1467.51 362.816 1467.51 353.699C1467.51 347.584 1473.07 339.023 1485.19 339.023C1497.31 339.023 1502.87 349.474 1502.87 355.033H1498.42C1498.42 351.03 1494.53 343.47 1485.19 343.47C1475.29 343.47 1471.96 350.474 1471.96 353.699C1471.96 357.479 1476.74 360.703 1485.74 363.149C1489.97 364.261 1502.87 367.819 1502.87 376.936C1502.87 382.828 1497.31 391.167 1485.19 391.167Z" fill="black"/>
<path d="M755.287 312.116H756.287V311.116H755.287V312.116ZM755.287 316.564V317.564H756.287V316.564H755.287ZM728.826 316.564V315.564H727.826V316.564H728.826ZM728.826 390.5V391.5H729.826V390.5H728.826ZM724.379 390.5H723.379V391.5H724.379V390.5ZM724.379 316.564H725.379V315.564H724.379V316.564ZM697.917 316.564H696.917V317.564H697.917V316.564ZM697.917 312.116V311.116H696.917V312.116H697.917ZM755.287 312.116H754.287V316.564H755.287H756.287V312.116H755.287ZM755.287 316.564V315.564H728.826V316.564V317.564H755.287V316.564ZM728.826 316.564H727.826V390.5H728.826H729.826V316.564H728.826ZM728.826 390.5V389.5H724.379V390.5V391.5H728.826V390.5ZM724.379 390.5H725.379V316.564H724.379H723.379V390.5H724.379ZM724.379 316.564V315.564H697.917V316.564V317.564H724.379V316.564ZM697.917 316.564H698.917V312.116H697.917H696.917V316.564H697.917ZM697.917 312.116V313.116H755.287V312.116V311.116H697.917V312.116ZM820.25 365.262V366.262H821.25V365.262H820.25ZM772.442 365.262V364.262H771.432L771.442 365.271L772.442 365.262ZM815.247 369.709V368.709H814.44L814.269 369.498L815.247 369.709ZM819.805 369.709L820.789 369.888L821.004 368.709H819.805V369.709ZM819.805 360.814L820.794 360.662L820.793 360.654L819.805 360.814ZM772.886 360.814L771.906 360.616L771.664 361.814H772.886V360.814ZM815.358 360.814V361.814H816.581L816.338 360.616L815.358 360.814ZM820.25 365.15H819.25V365.262H820.25H821.25V365.15H820.25ZM820.25 365.262V364.262H772.442V365.262V366.262H820.25V365.262ZM772.442 365.262L771.442 365.271C771.558 377.717 781.678 387.72 794.122 387.72V386.72V385.72C782.773 385.72 773.548 376.599 773.442 365.252L772.442 365.262ZM794.122 386.72V387.72C804.94 387.72 814.014 380.158 816.224 369.92L815.247 369.709L814.269 369.498C812.255 378.828 803.985 385.72 794.122 385.72V386.72ZM815.247 369.709V370.709H819.805V369.709V368.709H815.247V369.709ZM819.805 369.709L818.822 369.53C816.683 381.294 806.415 390.167 794.122 390.167V391.167V392.167C807.401 392.167 818.481 382.584 820.789 369.888L819.805 369.709ZM794.122 391.167V390.167C780.326 390.167 768.994 378.935 768.994 365.15H767.994H766.994C766.994 380.051 779.233 392.167 794.122 392.167V391.167ZM767.994 365.15H768.994C768.994 351.252 780.329 340.023 794.122 340.023V339.023V338.023C779.23 338.023 766.994 350.142 766.994 365.15H767.994ZM794.122 339.023V340.023C806.523 340.023 816.895 349.111 818.818 360.974L819.805 360.814L820.793 360.654C818.714 347.835 807.516 338.023 794.122 338.023V339.023ZM819.805 360.814L818.817 360.966C819.041 362.425 819.25 363.794 819.25 365.15H820.25H821.25C821.25 363.616 821.014 362.094 820.794 360.662L819.805 360.814ZM772.886 360.814V361.814H815.358V360.814V359.814H772.886V360.814ZM815.358 360.814L816.338 360.616C814.244 350.262 805.057 342.47 794.122 342.47V343.47V344.47C804.089 344.47 812.469 351.576 814.378 361.013L815.358 360.814ZM794.122 343.47V342.47C783.187 342.47 774 350.262 771.906 360.616L772.886 360.814L773.867 361.013C775.775 351.576 784.155 344.47 794.122 344.47V343.47ZM893.206 346.694L893.9 347.414L894.633 346.707L893.913 345.987L893.206 346.694ZM889.982 349.807L889.274 350.514L889.969 351.209L890.676 350.527L889.982 349.807ZM889.982 380.382L890.689 379.675L889.982 378.968L889.274 379.675L889.982 380.382ZM893.206 383.607L893.905 384.322L894.628 383.615L893.913 382.9L893.206 383.607ZM874.75 391.167V390.167C860.845 390.167 849.622 378.938 849.622 365.15H848.622H847.622C847.622 380.048 859.746 392.167 874.75 392.167V391.167ZM848.622 365.15H849.622C849.622 351.249 860.848 340.023 874.75 340.023V339.023V338.023C859.744 338.023 847.622 350.144 847.622 365.15H848.622ZM874.75 339.023V340.023C881.379 340.023 887.684 342.586 892.499 347.401L893.206 346.694L893.913 345.987C888.721 340.795 881.907 338.023 874.75 338.023V339.023ZM893.206 346.694L892.511 345.975L889.287 349.088L889.982 349.807L890.676 350.527L893.9 347.414L893.206 346.694ZM889.982 349.807L890.689 349.1C886.389 344.801 880.799 342.47 874.75 342.47V343.47V344.47C880.263 344.47 885.346 346.586 889.274 350.514L889.982 349.807ZM874.75 343.47V342.47C862.19 342.47 852.069 352.59 852.069 365.15H853.069H854.069C854.069 353.695 863.294 344.47 874.75 344.47V343.47ZM853.069 365.15H852.069C852.069 377.603 862.193 387.72 874.75 387.72V386.72V385.72C863.291 385.72 854.069 376.491 854.069 365.15H853.069ZM874.75 386.72V387.72C880.799 387.72 886.389 385.389 890.689 381.09L889.982 380.382L889.274 379.675C885.346 383.603 880.263 385.72 874.75 385.72V386.72ZM889.982 380.382L889.274 381.09L892.499 384.314L893.206 383.607L893.913 382.9L890.689 379.675L889.982 380.382ZM893.206 383.607L892.507 382.892C887.689 387.602 881.38 390.167 874.75 390.167V391.167V392.167C881.906 392.167 888.716 389.395 893.905 384.322L893.206 383.607ZM964.301 390.5V391.5H965.301V390.5H964.301ZM959.854 390.5H958.854V391.5H959.854V390.5ZM928.167 390.5V391.5H929.167V390.5H928.167ZM923.719 390.5H922.719V391.5H923.719V390.5ZM923.719 312.116V311.116H922.719V312.116H923.719ZM928.167 312.116H929.167V311.116H928.167V312.116ZM928.167 346.583H927.167V349.355L928.936 347.221L928.167 346.583ZM964.301 359.258H963.301V390.5H964.301H965.301V359.258H964.301ZM964.301 390.5V389.5H959.854V390.5V391.5H964.301V390.5ZM959.854 390.5H960.854V359.258H959.854H958.854V390.5H959.854ZM959.854 359.258H960.854C960.854 350.029 953.286 342.47 943.955 342.47V343.47V344.47C952.19 344.47 958.854 351.142 958.854 359.258H959.854ZM943.955 343.47V342.47C934.73 342.47 927.167 350.033 927.167 359.258H928.167H929.167C929.167 351.138 935.835 344.47 943.955 344.47V343.47ZM928.167 359.258H927.167V390.5H928.167H929.167V359.258H928.167ZM928.167 390.5V389.5H923.719V390.5V391.5H928.167V390.5ZM923.719 390.5H924.719V312.116H923.719H922.719V390.5H923.719ZM923.719 312.116V313.116H928.167V312.116V311.116H923.719V312.116ZM928.167 312.116H927.167V346.583H928.167H929.167V312.116H928.167ZM928.167 346.583L928.936 347.221C932.544 342.871 937.941 340.023 943.955 340.023V339.023V338.023C937.293 338.023 931.35 341.178 927.397 345.945L928.167 346.583ZM943.955 339.023V340.023C954.635 340.023 963.301 348.695 963.301 359.258H964.301H965.301C965.301 347.584 955.733 338.023 943.955 338.023V339.023ZM1035.91 390.5V391.5H1036.91V390.5H1035.91ZM1031.47 390.5H1030.47V391.5H1031.47V390.5ZM999.779 390.5V391.5H1000.78V390.5H999.779ZM995.332 390.5H994.332V391.5H995.332V390.5ZM1035.91 390.5V389.5H1031.47V390.5V391.5H1035.91V390.5ZM1031.47 390.5H1032.47V359.258H1031.47H1030.47V390.5H1031.47ZM1031.47 359.258H1032.47C1032.47 350.029 1024.9 342.47 1015.57 342.47V343.47V344.47C1023.8 344.47 1030.47 351.142 1030.47 359.258H1031.47ZM1015.57 343.47V342.47C1006.34 342.47 998.779 350.033 998.779 359.258H999.779H1000.78C1000.78 351.138 1007.45 344.47 1015.57 344.47V343.47ZM999.779 359.258H998.779V390.5H999.779H1000.78V359.258H999.779ZM999.779 390.5V389.5H995.332V390.5V391.5H999.779V390.5ZM995.332 390.5H996.332V359.258H995.332H994.332V390.5H995.332ZM995.332 359.258H996.332C996.332 348.692 1005 340.023 1015.57 340.023V339.023V338.023C1003.9 338.023 994.332 347.587 994.332 359.258H995.332ZM1015.57 339.023V340.023C1026.25 340.023 1034.91 348.695 1034.91 359.258H1035.91H1036.91C1036.91 347.584 1027.35 338.023 1015.57 338.023V339.023ZM1035.91 359.258H1034.91V390.5H1035.91H1036.91V359.258H1035.91ZM1092.52 391.167V390.167C1078.72 390.167 1067.39 378.935 1067.39 365.15H1066.39H1065.39C1065.39 380.051 1077.63 392.167 1092.52 392.167V391.167ZM1066.39 365.15H1067.39C1067.39 351.252 1078.72 340.023 1092.52 340.023V339.023V338.023C1077.62 338.023 1065.39 350.142 1065.39 365.15H1066.39ZM1092.52 339.023V340.023C1106.31 340.023 1117.64 351.252 1117.64 365.15H1118.64H1119.64C1119.64 350.142 1107.41 338.023 1092.52 338.023V339.023ZM1118.64 365.15H1117.64C1117.64 378.935 1106.31 390.167 1092.52 390.167V391.167V392.167C1107.41 392.167 1119.64 380.051 1119.64 365.15H1118.64ZM1092.52 343.47V342.47C1080.07 342.47 1069.84 352.587 1069.84 365.15H1070.84H1071.84C1071.84 353.698 1081.17 344.47 1092.52 344.47V343.47ZM1070.84 365.15H1069.84C1069.84 377.606 1080.07 387.72 1092.52 387.72V386.72V385.72C1081.17 385.72 1071.84 376.488 1071.84 365.15H1070.84ZM1092.52 386.72V387.72C1104.96 387.72 1115.2 377.606 1115.2 365.15H1114.2H1113.2C1113.2 376.488 1103.87 385.72 1092.52 385.72V386.72ZM1114.2 365.15H1115.2C1115.2 352.587 1104.96 342.47 1092.52 342.47V343.47V344.47C1103.86 344.47 1113.2 353.698 1113.2 365.15H1114.2ZM1149.2 390.5H1148.2V391.5H1149.2V390.5ZM1149.2 312.116V311.116H1148.2V312.116H1149.2ZM1153.65 312.116H1154.65V311.116H1153.65V312.116ZM1153.65 390.5V391.5H1154.65V390.5H1153.65ZM1149.2 390.5H1150.2V312.116H1149.2H1148.2V390.5H1149.2ZM1149.2 312.116V313.116H1153.65V312.116V311.116H1149.2V312.116ZM1153.65 312.116H1152.65V390.5H1153.65H1154.65V312.116H1153.65ZM1153.65 390.5V389.5H1149.2V390.5V391.5H1153.65V390.5ZM1210.23 391.167V390.167C1196.43 390.167 1185.1 378.935 1185.1 365.15H1184.1H1183.1C1183.1 380.051 1195.34 392.167 1210.23 392.167V391.167ZM1184.1 365.15H1185.1C1185.1 351.252 1196.43 340.023 1210.23 340.023V339.023V338.023C1195.33 338.023 1183.1 350.142 1183.1 365.15H1184.1ZM1210.23 339.023V340.023C1224.02 340.023 1235.35 351.252 1235.35 365.15H1236.35H1237.35C1237.35 350.142 1225.12 338.023 1210.23 338.023V339.023ZM1236.35 365.15H1235.35C1235.35 378.935 1224.02 390.167 1210.23 390.167V391.167V392.167C1225.12 392.167 1237.35 380.051 1237.35 365.15H1236.35ZM1210.23 343.47V342.47C1197.78 342.47 1187.55 352.587 1187.55 365.15H1188.55H1189.55C1189.55 353.698 1198.88 344.47 1210.23 344.47V343.47ZM1188.55 365.15H1187.55C1187.55 377.606 1197.78 387.72 1210.23 387.72V386.72V385.72C1198.88 385.72 1189.55 376.488 1189.55 365.15H1188.55ZM1210.23 386.72V387.72C1222.67 387.72 1232.91 377.606 1232.91 365.15H1231.91H1230.91C1230.91 376.488 1221.58 385.72 1210.23 385.72V386.72ZM1231.91 365.15H1232.91C1232.91 352.587 1222.67 342.47 1210.23 342.47V343.47V344.47C1221.57 344.47 1230.91 353.698 1230.91 365.15H1231.91ZM1314.05 339.69V338.69H1313.05V339.69H1314.05ZM1318.5 339.69H1319.5V338.69H1318.5V339.69ZM1266.24 390.5V389.5H1265.24V390.5H1266.24ZM1270.69 390.5H1271.69V389.5H1270.69V390.5ZM1314.05 379.715H1315.05V376.519L1313.23 379.145L1314.05 379.715ZM1314.05 350.585L1313.23 351.149L1315.05 353.824V350.585H1314.05ZM1314.05 339.69V340.69H1318.5V339.69V338.69H1314.05V339.69ZM1318.5 339.69H1317.5V390.5H1318.5H1319.5V339.69H1318.5ZM1318.5 390.5H1317.5C1317.5 404.399 1306.16 415.628 1292.37 415.628V416.628V417.628C1307.26 417.628 1319.5 405.509 1319.5 390.5H1318.5ZM1292.37 416.628V415.628C1278.58 415.628 1267.24 404.399 1267.24 390.5H1266.24H1265.24C1265.24 405.509 1277.48 417.628 1292.37 417.628V416.628ZM1266.24 390.5V391.5H1270.69V390.5V389.5H1266.24V390.5ZM1270.69 390.5H1269.69C1269.69 403.063 1279.93 413.181 1292.37 413.181V412.181V411.181C1281.02 411.181 1271.69 401.952 1271.69 390.5H1270.69ZM1292.37 412.181V413.181C1304.82 413.181 1315.05 403.063 1315.05 390.5H1314.05H1313.05C1313.05 401.952 1303.72 411.181 1292.37 411.181V412.181ZM1314.05 390.5H1315.05V379.715H1314.05H1313.05V390.5H1314.05ZM1314.05 379.715L1313.23 379.145C1308.62 385.787 1301.03 390.167 1292.37 390.167V391.167V392.167C1301.73 392.167 1309.92 387.43 1314.87 380.285L1314.05 379.715ZM1292.37 391.167V390.167C1278.58 390.167 1267.24 378.935 1267.24 365.15H1266.24H1265.24C1265.24 380.051 1277.48 392.167 1292.37 392.167V391.167ZM1266.24 365.15H1267.24C1267.24 351.249 1278.47 340.023 1292.37 340.023V339.023V338.023C1277.37 338.023 1265.24 350.144 1265.24 365.15H1266.24ZM1292.37 339.023V340.023C1301.03 340.023 1308.62 344.401 1313.23 351.149L1314.05 350.585L1314.88 350.022C1309.92 342.761 1301.73 338.023 1292.37 338.023V339.023ZM1314.05 350.585H1315.05V339.69H1314.05H1313.05V350.585H1314.05ZM1292.37 386.72V387.72C1304.81 387.72 1315.05 377.606 1315.05 365.15H1314.05H1313.05C1313.05 376.488 1303.72 385.72 1292.37 385.72V386.72ZM1314.05 365.15H1315.05C1315.05 352.587 1304.82 342.47 1292.37 342.47V343.47V344.47C1303.72 344.47 1313.05 353.698 1313.05 365.15H1314.05ZM1292.37 343.47V342.47C1279.93 342.47 1269.69 352.587 1269.69 365.15H1270.69H1271.69C1271.69 353.698 1281.02 344.47 1292.37 344.47V343.47ZM1270.69 365.15H1269.69C1269.69 377.606 1279.93 387.72 1292.37 387.72V386.72V385.72C1281.02 385.72 1271.69 376.488 1271.69 365.15H1270.69ZM1349.93 390.5H1348.93V391.5H1349.93V390.5ZM1349.93 339.578V338.578H1348.93V339.578H1349.93ZM1354.38 339.578H1355.38V338.578H1354.38V339.578ZM1354.38 390.5V391.5H1355.38V390.5H1354.38ZM1349.49 332.129H1348.49V333.129H1349.49V332.129ZM1349.49 326.681V325.681H1348.49V326.681H1349.49ZM1354.94 326.681H1355.94V325.681H1354.94V326.681ZM1354.94 332.129V333.129H1355.94V332.129H1354.94ZM1349.93 390.5H1350.93V339.578H1349.93H1348.93V390.5H1349.93ZM1349.93 339.578V340.578H1354.38V339.578V338.578H1349.93V339.578ZM1354.38 339.578H1353.38V390.5H1354.38H1355.38V339.578H1354.38ZM1354.38 390.5V389.5H1349.93V390.5V391.5H1354.38V390.5ZM1349.49 332.129H1350.49V326.681H1349.49H1348.49V332.129H1349.49ZM1349.49 326.681V327.681H1354.94V326.681V325.681H1349.49V326.681ZM1354.94 326.681H1353.94V332.129H1354.94H1355.94V326.681H1354.94ZM1354.94 332.129V331.129H1349.49V332.129V333.129H1354.94V332.129ZM1437.62 365.262V366.262H1438.62V365.262H1437.62ZM1389.81 365.262V364.262H1388.8L1388.81 365.271L1389.81 365.262ZM1432.62 369.709V368.709H1431.81L1431.64 369.498L1432.62 369.709ZM1437.18 369.709L1438.16 369.888L1438.37 368.709H1437.18V369.709ZM1437.18 360.814L1438.16 360.662L1438.16 360.654L1437.18 360.814ZM1390.26 360.814L1389.28 360.616L1389.04 361.814H1390.26V360.814ZM1432.73 360.814V361.814H1433.95L1433.71 360.616L1432.73 360.814ZM1437.62 365.15H1436.62V365.262H1437.62H1438.62V365.15H1437.62ZM1437.62 365.262V364.262H1389.81V365.262V366.262H1437.62V365.262ZM1389.81 365.262L1388.81 365.271C1388.93 377.717 1399.05 387.72 1411.49 387.72V386.72V385.72C1400.14 385.72 1390.92 376.599 1390.81 365.252L1389.81 365.262ZM1411.49 386.72V387.72C1422.31 387.72 1431.39 380.158 1433.6 369.92L1432.62 369.709L1431.64 369.498C1429.63 378.828 1421.36 385.72 1411.49 385.72V386.72ZM1432.62 369.709V370.709H1437.18V369.709V368.709H1432.62V369.709ZM1437.18 369.709L1436.19 369.53C1434.05 381.294 1423.79 390.167 1411.49 390.167V391.167V392.167C1424.77 392.167 1435.85 382.584 1438.16 369.888L1437.18 369.709ZM1411.49 391.167V390.167C1397.7 390.167 1386.37 378.935 1386.37 365.15H1385.37H1384.37C1384.37 380.051 1396.6 392.167 1411.49 392.167V391.167ZM1385.37 365.15H1386.37C1386.37 351.252 1397.7 340.023 1411.49 340.023V339.023V338.023C1396.6 338.023 1384.37 350.142 1384.37 365.15H1385.37ZM1411.49 339.023V340.023C1423.89 340.023 1434.27 349.111 1436.19 360.974L1437.18 360.814L1438.16 360.654C1436.08 347.835 1424.89 338.023 1411.49 338.023V339.023ZM1437.18 360.814L1436.19 360.966C1436.41 362.425 1436.62 363.794 1436.62 365.15H1437.62H1438.62C1438.62 363.616 1438.39 362.094 1438.16 360.662L1437.18 360.814ZM1390.26 360.814V361.814H1432.73V360.814V359.814H1390.26V360.814ZM1432.73 360.814L1433.71 360.616C1431.62 350.262 1422.43 342.47 1411.49 342.47V343.47V344.47C1421.46 344.47 1429.84 351.576 1431.75 361.013L1432.73 360.814ZM1411.49 343.47V342.47C1400.56 342.47 1391.37 350.262 1389.28 360.616L1390.26 360.814L1391.24 361.013C1393.15 351.576 1401.53 344.47 1411.49 344.47V343.47ZM1467.62 375.49V374.49H1466.62V375.49H1467.62ZM1472.07 375.49H1473.07V374.49H1472.07V375.49ZM1484.63 367.485L1484.35 368.446L1484.36 368.448L1484.37 368.45L1484.63 367.485ZM1502.87 355.033V356.033H1503.87V355.033H1502.87ZM1498.42 355.033H1497.42V356.033H1498.42V355.033ZM1485.74 363.149L1485.48 364.114L1485.49 364.116L1485.74 363.149ZM1485.19 391.167V390.167C1474.33 390.167 1468.62 381.542 1468.62 375.49H1467.62H1466.62C1466.62 382.559 1473.14 392.167 1485.19 392.167V391.167ZM1467.62 375.49V376.49H1472.07V375.49V374.49H1467.62V375.49ZM1472.07 375.49H1471.07C1471.07 379.96 1475.22 387.72 1485.19 387.72V386.72V385.72C1476.48 385.72 1473.07 379.025 1473.07 375.49H1472.07ZM1485.19 386.72V387.72C1495.74 387.72 1499.42 380.719 1499.42 376.936H1498.42H1497.42C1497.42 379.601 1494.65 385.72 1485.19 385.72V386.72ZM1498.42 376.936H1499.42C1499.42 374.569 1497.91 372.554 1495.47 370.884C1493.01 369.209 1489.44 367.756 1484.89 366.52L1484.63 367.485L1484.37 368.45C1488.83 369.661 1492.15 371.043 1494.34 372.536C1496.54 374.035 1497.42 375.522 1497.42 376.936H1498.42ZM1484.63 367.485L1484.91 366.525C1482.77 365.906 1478.61 364.769 1474.98 362.685C1471.33 360.588 1468.51 357.709 1468.51 353.699H1467.51H1466.51C1466.51 358.805 1470.14 362.208 1473.99 364.419C1477.86 366.644 1482.26 367.841 1484.35 368.446L1484.63 367.485ZM1467.51 353.699H1468.51C1468.51 348.136 1473.62 340.023 1485.19 340.023V339.023V338.023C1472.52 338.023 1466.51 347.031 1466.51 353.699H1467.51ZM1485.19 339.023V340.023C1490.93 340.023 1495.08 342.487 1497.82 345.603C1500.59 348.754 1501.87 352.528 1501.87 355.033H1502.87H1503.87C1503.87 351.979 1502.37 347.748 1499.32 344.283C1496.25 340.784 1491.57 338.023 1485.19 338.023V339.023ZM1502.87 355.033V354.033H1498.42V355.033V356.033H1502.87V355.033ZM1498.42 355.033H1499.42C1499.42 352.762 1498.34 349.639 1496.05 347.083C1493.73 344.493 1490.16 342.47 1485.19 342.47V343.47V344.47C1489.56 344.47 1492.6 346.227 1494.56 348.417C1496.55 350.643 1497.42 353.301 1497.42 355.033H1498.42ZM1485.19 343.47V342.47C1474.7 342.47 1470.96 349.96 1470.96 353.699H1471.96H1472.96C1472.96 350.989 1475.88 344.47 1485.19 344.47V343.47ZM1471.96 353.699H1470.96C1470.96 356.065 1472.46 358.08 1474.91 359.75C1477.36 361.425 1480.93 362.879 1485.48 364.114L1485.74 363.149L1486.01 362.184C1481.55 360.974 1478.23 359.592 1476.04 358.098C1473.84 356.599 1472.96 355.112 1472.96 353.699H1471.96ZM1485.74 363.149L1485.49 364.116C1487.6 364.671 1491.76 365.812 1495.39 367.906C1499.04 370.016 1501.87 372.923 1501.87 376.936H1502.87H1503.87C1503.87 371.832 1500.24 368.401 1496.39 366.175C1492.51 363.933 1488.11 362.739 1486 362.182L1485.74 363.149ZM1502.87 376.936H1501.87C1501.87 382.249 1496.78 390.167 1485.19 390.167V391.167V392.167C1497.83 392.167 1503.87 383.408 1503.87 376.936H1502.87Z" fill="black" mask="url(#path-8-outside-1_806_55)"/>
<defs>
<linearGradient id="paint0_linear_806_55" x1="0" y1="207.293" x2="149.624" y2="207.293" gradientUnits="userSpaceOnUse">
<stop/>
<stop offset="1" stop-color="#666666"/>
</linearGradient>
<linearGradient id="paint1_linear_806_55" x1="0" y1="407.336" x2="149.624" y2="407.336" gradientUnits="userSpaceOnUse">
<stop/>
<stop offset="1" stop-color="#666666"/>
</linearGradient>
<linearGradient id="paint2_linear_806_55" x1="373.423" y1="379.175" x2="373.423" y2="215.457" gradientUnits="userSpaceOnUse">
<stop/>
<stop offset="1" stop-color="#666666"/>
</linearGradient>
<linearGradient id="paint3_linear_806_55" x1="434.675" y1="207.296" x2="0" y2="207.296" gradientUnits="userSpaceOnUse">
<stop/>
<stop offset="1" stop-color="#666666"/>
</linearGradient>
<linearGradient id="paint4_linear_806_55" x1="492.916" y1="374.823" x2="0" y2="374.823" gradientUnits="userSpaceOnUse">
<stop/>
<stop offset="1" stop-color="#666666"/>
</linearGradient>
</defs>
</svg>
