<svg width="40" height="40" viewBox="0 0 40 40" fill="none" xmlns="http://www.w3.org/2000/svg">
<path d="M37.3185 20.3704C37.4444 20.1407 37.4444 19.8593 37.3185 19.6296C33.763 13.4593 27.1259 9.62964 20 9.62964C12.8741 9.62964 6.24444 13.4593 2.68148 19.6296C2.55555 19.8593 2.55555 20.1407 2.68148 20.3704C6.24444 26.5407 12.8741 30.3704 20 30.3704C27.1259 30.3704 33.763 26.5407 37.3185 20.3704ZM20 26.6667C16.3259 26.6667 13.3333 23.6741 13.3333 20C13.3333 16.3259 16.3259 13.3333 20 13.3333C23.6741 13.3333 26.6667 16.3259 26.6667 20C26.6667 23.6741 23.6741 26.6667 20 26.6667Z" fill="#121820"/>
<path d="M20 14.8148C17.1407 14.8148 14.8148 17.1407 14.8148 20C14.8148 22.8593 17.1407 25.1852 20 25.1852C22.8593 25.1852 25.1852 22.8593 25.1852 20C25.1852 17.1407 22.8593 14.8148 20 14.8148ZM20 22.437C18.6593 22.437 17.563 21.3407 17.563 20C17.563 18.6593 18.6593 17.563 20 17.563C21.3407 17.563 22.437 18.6593 22.437 20C22.437 21.3407 21.3407 22.437 20 22.437Z" fill="#F57C00"/>
<path d="M0.740741 7.40741C1.14815 7.40741 1.48148 7.07407 1.48148 6.66667V1.48148H6.66667C7.07407 1.48148 7.40741 1.14815 7.40741 0.740741C7.40741 0.333333 7.07407 0 6.66667 0H0.740741C0.333333 0 0 0.333333 0 0.740741V6.66667C0 7.07407 0.333333 7.40741 0.740741 7.40741Z" fill="#121820"/>
<path d="M6.66667 38.5186H1.48148V33.3334C1.48148 32.926 1.14815 32.5927 0.740741 32.5927C0.333333 32.5927 0 32.926 0 33.3334V39.2593C0 39.6667 0.333333 40.0001 0.740741 40.0001H6.66667C7.07407 40.0001 7.40741 39.6667 7.40741 39.2593C7.40741 38.8519 7.07407 38.5186 6.66667 38.5186Z" fill="#121820"/>
<path d="M39.2593 32.5927C38.8519 32.5927 38.5186 32.926 38.5186 33.3334V38.5186H33.3334C32.926 38.5186 32.5927 38.8519 32.5927 39.2593C32.5927 39.6667 32.926 40.0001 33.3334 40.0001H39.2593C39.6667 40.0001 40.0001 39.6667 40.0001 39.2593V33.3334C40.0001 32.926 39.6667 32.5927 39.2593 32.5927Z" fill="#121820"/>
<path d="M39.2593 0H33.3334C32.926 0 32.5927 0.333333 32.5927 0.740741C32.5927 1.14815 32.926 1.48148 33.3334 1.48148H38.5186V6.66667C38.5186 7.07407 38.8519 7.40741 39.2593 7.40741C39.6667 7.40741 40.0001 7.07407 40.0001 6.66667V0.740741C40.0001 0.333333 39.6667 0 39.2593 0Z" fill="#121820"/>
<path d="M20 19.0444C19.4741 19.0444 19.0444 19.4741 19.0444 20C19.0444 20.5259 19.4741 20.9555 20 20.9555C20.5259 20.9555 20.9555 20.5259 20.9555 20C20.9555 19.4741 20.5259 19.0444 20 19.0444Z" fill="#121820"/>
</svg>
