<svg width="40" height="40" viewBox="0 0 40 40" fill="none" xmlns="http://www.w3.org/2000/svg">
<path d="M33.1922 24.6034C33.1922 24.4405 33.1848 24.285 33.17 24.1221C34.1846 23.1519 34.8215 21.7819 34.8215 20.2711C34.8215 18.7604 34.2142 17.4126 33.1552 16.4054C33.17 16.2499 33.1922 16.0944 33.1922 15.9389C33.1922 13.7172 31.8295 11.8139 29.904 11.0068C29.9188 10.8439 29.9485 10.6884 29.9485 10.5254C29.9485 7.57797 27.5564 5.18579 24.6087 5.18579C22.6461 5.18579 20.9353 6.25221 20.0096 7.8296C19.0839 6.25221 17.3657 5.18579 15.4106 5.18579C12.463 5.18579 10.0708 7.57783 10.0708 10.5254C10.0708 10.6884 10.1004 10.8439 10.1152 11.0068C8.18232 11.814 6.82703 13.7173 6.82703 15.9389C6.82703 16.0944 6.85665 16.2499 6.86406 16.4054C5.80501 17.4126 5.19775 18.7975 5.19775 20.2711C5.19775 21.7448 5.83468 23.1445 6.84927 24.1221C6.83446 24.285 6.82705 24.4405 6.82705 24.6034C6.82705 26.8029 8.1675 28.6988 10.0782 29.5132C10.1005 32.4385 12.4851 34.8083 15.418 34.8083C17.3806 34.8083 19.0913 33.7419 20.0171 32.1645C20.9428 33.7419 22.6609 34.8083 24.6161 34.8083C27.5488 34.8083 29.9336 32.4385 29.9559 29.5132C31.8666 28.6986 33.2071 26.8027 33.2071 24.6034H33.1922ZM15.4034 33.3348C13.4261 33.3348 11.8116 31.8314 11.5894 29.9133C11.7746 29.9356 11.9671 29.943 12.1597 29.943C13.5816 29.943 14.922 29.3875 15.9292 28.3878C16.2181 28.099 16.2181 27.6324 15.9292 27.3436C15.6404 27.0548 15.1738 27.0548 14.885 27.3436C14.1593 28.0693 13.1891 28.4693 12.1597 28.4693C10.2193 28.4693 8.61963 27.0178 8.35307 25.1515C9.01957 25.4552 9.7602 25.6255 10.5378 25.6255C10.9451 25.6255 11.2784 25.2922 11.2784 24.8849C11.2784 24.4776 10.9451 24.1444 10.5378 24.1444C9.72314 24.1444 8.96776 23.8852 8.34567 23.4557C8.2642 23.2113 8.07166 23.0187 7.80506 22.9595H7.76803C7.09408 22.2633 6.67935 21.3228 6.67935 20.286C6.67935 19.5158 6.90894 18.7827 7.32367 18.1606C7.50882 18.5679 7.731 18.9678 8.01985 19.3159C8.16797 19.4936 8.38273 19.5899 8.59753 19.5899C8.76046 19.5899 8.92339 19.538 9.0641 19.427C9.38256 19.1678 9.42699 18.7012 9.17519 18.3828C8.61235 17.6866 8.31611 16.8498 8.31611 15.9537C8.31611 13.8283 10.0491 12.0954 12.1746 12.0954C13.0929 12.0954 13.9742 12.4212 14.6703 13.0137C14.9814 13.2803 15.4479 13.2433 15.7145 12.9322C15.9811 12.6212 15.9441 12.1546 15.6331 11.888C14.6703 11.066 13.4409 10.6216 12.1745 10.6216C11.9672 10.6216 11.7672 10.6365 11.5747 10.6587C11.5747 10.6216 11.5672 10.5846 11.5672 10.5476C11.5672 8.42215 13.3002 6.68925 15.4257 6.68925C17.5512 6.68925 19.2841 8.42215 19.2841 10.5476C19.2841 12.2509 18.1881 13.7394 16.5588 14.2356C16.1663 14.3541 15.9515 14.7688 16.07 15.1613C16.1663 15.4797 16.4625 15.6871 16.781 15.6871C16.855 15.6871 16.9291 15.6797 16.9957 15.6575C17.8918 15.3835 18.6694 14.8799 19.2841 14.2356V25.8183C18.588 25.0925 17.6993 24.5445 16.6625 24.3001C16.2626 24.2113 15.8627 24.4482 15.7738 24.8481C15.6849 25.248 15.9293 25.6479 16.3218 25.7368C18.0696 26.1515 19.2841 27.6919 19.2841 29.4915C19.2841 31.6169 17.5512 33.3498 15.4257 33.3498L15.4034 33.3348ZM24.6014 33.3348C22.4759 33.3348 20.743 31.6019 20.743 29.4764C20.743 27.6769 21.9649 26.1365 23.7053 25.7218C24.1052 25.6255 24.3496 25.2256 24.2533 24.8331C24.157 24.4332 23.7571 24.1888 23.3646 24.2851C22.3278 24.5295 21.4317 25.0775 20.743 25.8032V14.2205C21.3577 14.8648 22.1353 15.361 23.0314 15.6424C23.1054 15.6646 23.1795 15.6721 23.2461 15.6721C23.5646 15.6721 23.8534 15.4647 23.9571 15.1462C24.0756 14.7537 23.8608 14.339 23.4683 14.2205C21.839 13.717 20.743 12.2358 20.743 10.5325C20.743 8.40711 22.4759 6.67421 24.6014 6.67421C26.7269 6.67421 28.4599 8.40711 28.4599 10.5325C28.4599 10.5696 28.4524 10.6066 28.4524 10.6436C28.2525 10.6214 28.0525 10.6066 27.8526 10.6066C26.5862 10.6066 25.3568 11.0584 24.394 11.873C24.083 12.1396 24.046 12.6062 24.3126 12.9172C24.5792 13.2282 25.0458 13.2652 25.3568 12.9986C26.053 12.4062 26.9417 12.0803 27.8525 12.0803C29.978 12.0803 31.711 13.8132 31.711 15.9387C31.711 16.8347 31.4148 17.679 30.8519 18.3677C30.5927 18.6862 30.6445 19.1527 30.963 19.4119C31.1037 19.523 31.2666 19.5748 31.4296 19.5748C31.6443 19.5748 31.8591 19.4786 32.0072 19.3008C32.2961 18.9454 32.5182 18.5529 32.7034 18.1456C33.1182 18.7676 33.3477 19.5008 33.3477 20.271C33.3477 21.3078 32.933 22.2557 32.2591 22.9444H32.222C31.9554 22.9963 31.7629 23.1962 31.6814 23.4406C31.0593 23.8701 30.304 24.1293 29.4893 24.1293C29.082 24.1293 28.7487 24.4626 28.7487 24.8699C28.7487 25.2772 29.082 25.6105 29.4893 25.6105C30.2669 25.6105 31.0001 25.4401 31.674 25.1365C31.4074 27.0101 29.8152 28.4542 27.8674 28.4542C26.838 28.4542 25.8678 28.0543 25.1421 27.3286C24.8533 27.0397 24.3867 27.0397 24.0979 27.3286C23.8091 27.6174 23.809 28.084 24.0979 28.3728C25.1051 29.3799 26.4455 29.9279 27.8674 29.9279C28.06 29.9279 28.2451 29.9131 28.4377 29.8983C28.2155 31.8164 26.601 33.3197 24.6237 33.3197L24.6014 33.3348Z" fill="black"/>
<path d="M27.8675 23.3892C27.9045 23.3892 27.9416 23.3966 27.986 23.3966C28.3415 23.3966 28.6599 23.1374 28.7192 22.7746C28.7858 22.3672 28.5044 21.9896 28.1045 21.9303C27.1788 21.7822 26.3493 21.2712 25.7939 20.5307C27.8823 19.9012 29.4079 17.9683 29.4079 15.6726C29.4079 15.3319 29.3709 14.9839 29.3042 14.6506C29.2228 14.2507 28.8377 13.9915 28.4303 14.0729C28.0304 14.1544 27.7712 14.5469 27.8526 14.9468C27.9045 15.1838 27.9267 15.4282 27.9267 15.6726C27.9267 17.6499 26.3196 19.2643 24.3349 19.2643C23.8016 19.2643 23.2906 19.1532 22.8092 18.9236C22.4389 18.7533 21.9946 18.9088 21.8243 19.2791C21.654 19.6494 21.8095 20.0938 22.1797 20.2641C22.8092 20.5603 23.4832 20.7158 24.1794 20.7306C24.9199 22.1303 26.29 23.1374 27.8674 23.3819L27.8675 23.3892Z" fill="black"/>
<path d="M17.8248 20.2638C18.1951 20.0935 18.3581 19.6491 18.1803 19.2789C18.01 18.9086 17.5656 18.7531 17.1954 18.9234C16.714 19.1456 16.203 19.2641 15.6697 19.2641C13.6924 19.2641 12.0779 17.6571 12.0779 15.6723C12.0779 15.428 12.1001 15.1836 12.152 14.9466C12.2334 14.5467 11.9742 14.1542 11.5743 14.0727C11.1743 13.9912 10.7818 14.2504 10.7004 14.6504C10.6337 14.9836 10.5967 15.3317 10.5967 15.6723C10.5967 17.9607 12.1223 19.901 14.2107 20.5304C13.6553 21.271 12.8258 21.782 11.9001 21.9301C11.4928 21.9968 11.2188 22.3744 11.2854 22.7743C11.3447 23.1372 11.6557 23.3964 12.0186 23.3964C12.0556 23.3964 12.0927 23.3964 12.1371 23.389C13.7145 23.1372 15.0847 22.1375 15.8252 20.7377C16.5214 20.7155 17.1953 20.56 17.8248 20.2712L17.8248 20.2638Z" fill="black"/>
<path d="M7.23447 5.37102C7.38259 5.56357 7.59736 5.65984 7.82694 5.65984C7.98246 5.65984 8.13799 5.608 8.2787 5.50433C8.60455 5.25253 8.6638 4.79338 8.41941 4.46753L5.22747 0.290741C4.97567 -0.035108 4.51651 -0.0943532 4.19065 0.150031C3.86479 0.401824 3.80555 0.860975 4.04994 1.18682L7.24187 5.36362L7.23447 5.37102Z" fill="#F57C00"/>
<path d="M4.72418 8.34096C4.85007 8.42242 4.99079 8.46685 5.1315 8.46685C5.36849 8.46685 5.60547 8.34836 5.7462 8.141C5.97578 7.80034 5.8795 7.34119 5.53883 7.1116L1.15456 4.17896C0.813895 3.94939 0.354731 4.04566 0.125138 4.38632C-0.104456 4.72698 -0.0081676 5.18613 0.332502 5.41572L4.71677 8.34836L4.72418 8.34096Z" fill="#F57C00"/>
<path d="M5.50911 31.7352C5.26472 31.4094 4.79815 31.3501 4.47229 31.5945L0.295388 34.7863C-0.0304703 35.0381 -0.0897171 35.4973 0.154674 35.8231C0.302791 36.0157 0.517559 36.112 0.739749 36.112C0.895269 36.112 1.0582 36.0601 1.1915 35.9564L5.36841 32.7646C5.69427 32.5128 5.75351 32.0536 5.50912 31.7278L5.50911 31.7352Z" fill="#F57C00"/>
<path d="M7.10864 34.4606L4.17591 38.8447C3.94633 39.1854 4.04261 39.6446 4.38328 39.8741C4.50918 39.9556 4.64989 40 4.7906 40C5.02759 40 5.26458 39.8815 5.4053 39.6742L8.33802 35.29C8.56761 34.9494 8.47133 34.4902 8.13066 34.2606C7.78999 34.031 7.33083 34.1273 7.10123 34.468L7.10864 34.4606Z" fill="#F57C00"/>
<path d="M32.7702 34.6382C32.5184 34.3123 32.0592 34.2531 31.7334 34.4974C31.4075 34.7492 31.3483 35.2084 31.5927 35.5342L34.7846 39.711C34.9327 39.9036 35.1475 39.9999 35.3771 39.9999C35.5326 39.9999 35.6881 39.948 35.8288 39.8443C36.1547 39.5925 36.2139 39.1334 35.9695 38.8075L32.7776 34.6308L32.7702 34.6382Z" fill="#F57C00"/>
<path d="M35.2805 31.6683C34.9399 31.4388 34.4807 31.535 34.2511 31.8757C34.0215 32.2164 34.1178 32.6755 34.4585 32.9051L38.8427 35.8377C38.9686 35.9192 39.1094 35.9636 39.2501 35.9636C39.4871 35.9636 39.724 35.8451 39.8648 35.6378C40.0944 35.2971 39.9981 34.838 39.6574 34.6084L35.2731 31.6757L35.2805 31.6683Z" fill="#F57C00"/>
<path d="M34.4955 8.27402C34.6436 8.46656 34.8584 8.56284 35.0806 8.56284C35.2361 8.56284 35.399 8.511 35.5323 8.40732L39.7092 5.21547C40.0351 4.96368 40.0943 4.50453 39.8499 4.17868C39.6055 3.85283 39.139 3.79359 38.8131 4.03797L34.6362 7.22982C34.3104 7.48161 34.2511 7.94077 34.4955 8.26661L34.4955 8.27402Z" fill="#F57C00"/>
<path d="M32.2812 5.87491C32.5181 5.87491 32.7551 5.75642 32.8959 5.54906L35.8286 1.16491C36.0582 0.824249 35.9619 0.365098 35.6212 0.13551C35.2805 -0.0940768 34.8214 0.0022086 34.5918 0.342869L31.6591 4.72702C31.4295 5.06768 31.5258 5.52683 31.8664 5.75642C31.9923 5.83788 32.133 5.88231 32.2738 5.88231L32.2812 5.87491Z" fill="#F57C00"/>
</svg>
