<svg width="40" height="39" viewBox="0 0 40 39" fill="none" xmlns="http://www.w3.org/2000/svg">
<path d="M19.9389 38.9979C14.6138 38.9979 9.60542 36.9704 5.84118 33.2854C2.07373 29.6048 0 24.7095 0 19.5028C0 14.2961 2.07357 9.39911 5.83798 5.71858C11.4727 0.209124 19.8997 -1.48994 27.3082 1.38721L26.6409 3.02811C19.9045 0.410908 12.2432 1.95861 7.11486 6.96835C3.6912 10.3159 1.80652 14.7667 1.80652 19.5029C1.80652 24.2391 3.691 28.6898 7.11486 32.0374C10.5387 35.3851 15.0906 37.2277 19.9345 37.2277C24.7784 37.2277 29.3303 35.3851 32.7541 32.0374C37.8905 27.0153 39.4686 19.5076 36.7716 12.912L38.4498 12.2565C41.4141 19.5077 39.6796 27.764 34.0323 33.2876C30.268 36.9682 25.2614 39 19.9346 39L19.9389 38.9979Z" fill="#121820"/>
<path d="M19.9388 32.2724C16.4495 32.2724 13.1728 30.9431 10.707 28.5337C5.61751 23.5531 5.61751 15.4567 10.707 10.476C14.2307 7.03071 19.5468 5.84504 24.2531 7.44781L23.6593 9.11774C19.6027 7.7335 15.0212 8.75564 11.9882 11.7258C7.60028 16.0161 7.60028 22.9939 11.9882 27.2838C14.1133 29.3616 16.9401 30.506 19.9419 30.506C22.9452 30.506 25.7703 29.3616 27.8956 27.2838C30.9333 24.3136 31.9787 19.8339 30.563 15.8722L32.2662 15.2916C33.9101 19.8936 32.6928 25.0913 29.1691 28.5364C26.7049 30.9458 23.4219 32.2751 19.9373 32.2751L19.9388 32.2724Z" fill="#121820"/>
<path d="M19.9389 25.5469C18.2873 25.5469 16.7387 24.9205 15.5682 23.7761C13.1587 21.4202 13.1587 17.5885 15.5682 15.2339C16.4886 14.334 17.6465 13.7534 18.9278 13.5471L19.22 15.2889C18.3169 15.4355 17.4949 15.8481 16.8449 16.4836C15.1416 18.149 15.1416 20.8623 16.8449 22.5278C17.6715 23.336 18.7684 23.7806 19.9373 23.7806C21.1077 23.7806 22.2046 23.3345 23.0297 22.5278C23.6797 21.8922 24.1047 21.0885 24.2516 20.2054L26.033 20.4911C25.822 21.7409 25.2236 22.8807 24.3032 23.776C23.1375 24.9158 21.5843 25.5468 19.9325 25.5468L19.9389 25.5469Z" fill="#121820"/>
<path d="M20.5765 20.129L19.2983 18.8792L28.2069 10.1687L27.2693 6.95566C27.1787 6.64856 27.2693 6.31702 27.4975 6.08939L33.4635 0.259205C33.6822 0.0453037 34.001 -0.0478947 34.3073 0.0239167C34.612 0.0911402 34.8573 0.309625 34.9573 0.595318L36.0636 3.75033L39.4061 4.93592C39.6936 5.04134 39.9139 5.28121 39.978 5.57456C40.0467 5.86943 39.9514 6.17654 39.7373 6.39041L33.8477 12.149C33.6149 12.3767 33.2805 12.4607 32.9618 12.3767L29.4865 11.4172L20.5765 20.129ZM29.9508 9.71043L32.94 10.5355L37.4527 6.12314L35.0401 5.26449C34.7823 5.17129 34.5838 4.9742 34.4932 4.72211L33.715 2.5098L29.1507 6.9726L29.9508 9.71043Z" fill="#F57C00"/>
</svg>
